# xmcd
#
# Track frame offsets:
#	150
#	18539
#	42940
#	62693
#	84537
#	101152
#	108317
#	123570
#	139650
#	148991
#	167161
#	192326
#
# Disc length: 3439 seconds
#
# Revision: 0
# Processed by: cddbd v1.5.1PL2 Copyright (c) Steve Scherf et al.
# Submitted via: audiograbber 1.81.02
#
DISCID=af0d6d0c
DTITLE=Makrel - Wonderland
DYEAR=2004
DGENRE=Metal
TTITLE0=Wonderland
TTITLE1=Walking Away
TTITLE2=Flashback Humour
TTITLE3=Mitt Ljos
TTITLE4=Time Is Now
TTITLE5=Recovering
TTITLE6=Imitations
TTITLE7=Drowning
TTITLE8=Opening
TTITLE9=Crime
TTITLE10=Truth Test
TTITLE11=Differences
EXTD=
EXTT0=
EXTT1=
EXTT2=
EXTT3=
EXTT4=
EXTT5=
EXTT6=
EXTT7=
EXTT8=
EXTT9=
EXTT10=
EXTT11=
PLAYORDER=
